# xmcd CD database file
#
# Track frame offsets:
#	150
#	21537
#	43750
#	66837
#	83875
#	107275
#	126687
#	147575
#	171837
#	199387
#
# Disc length: 2857 seconds
#
# Revision: 2
# Processed by: cddbd v1.5.1PL0 Copyright (c) Steve Scherf et al.
# Submitted via: CDex 1.51
#
DISCID=9a0b270a
DTITLE=Various Artist - Brand New Jazz Vocal
DYEAR=1991
DGENRE=Jazz
TTITLE0=Carol Slone - But Not For Me
TTITLE1=Lorez Alexsandria - My One And Only Love
TTITLE2=Bobby Norris - You And The Night And The Music
TTITLE3=Shirley Horn - All Of Me
TTITLE4=Susan McCorkle - As Time Goes By
TTITLE5=Morgan King - Stardust
TTITLE6=Vivian Load - Black Coffee
TTITLE7=Sheila Jordan - Body And Soul
TTITLE8=Millie Vernon - Over The Rainbow
TTITLE9=Carmen Lundy - Lullaby Of Birdland
EXTD=YEAR: 1991
EXTT0=
EXTT1=
EXTT2=
EXTT3=
EXTT4=
EXTT5=
EXTT6=
EXTT7=
EXTT8=
EXTT9=
PLAYORDER=
